<?xml version="1.0" standalone="no"?>
<!DOCTYPE svg PUBLIC "-//W3C//DTD SVG 20010904//EN"
 "http://www.w3.org/TR/2001/REC-SVG-20010904/DTD/svg10.dtd">
<svg version="1.0" xmlns="http://www.w3.org/2000/svg"
 width="260.000000pt" height="280.000000pt" viewBox="0 0 260.000000 280.000000"
 preserveAspectRatio="xMidYMid meet">

<g transform="translate(0.000000,280.000000) scale(0.100000,-0.100000)"
fill="#000000" stroke="none">
<path d="M692 2188 c-6 -7 -14 -26 -17 -41 l-7 -28 -22 20 c-33 31 -56 27 -56
-9 0 -51 24 -84 79 -110 28 -13 53 -21 56 -19 2 3 6 47 7 99 3 80 1 95 -13 98
-9 1 -21 -3 -27 -10z"/>
<path d="M2225 2051 c-39 -24 -111 -99 -103 -107 9 -9 150 68 162 89 8 13 7
20 -4 27 -20 13 -20 13 -55 -9z"/>
<path d="M2066 2044 c-3 -9 -6 -34 -5 -57 l1 -42 19 40 c10 22 19 48 19 58 0
21 -26 23 -34 1z"/>
<path d="M1414 1956 c-56 -25 -97 -121 -75 -178 6 -15 21 -34 34 -43 31 -20
68 -7 115 38 22 21 32 26 32 16 0 -39 65 -64 90 -34 16 19 30 19 30 0 0 -8 11
-17 24 -21 29 -7 67 16 86 51 10 19 16 22 22 13 13 -21 10 -25 -37 -52 -52
-31 -65 -51 -65 -100 0 -108 160 -99 163 9 1 22 -2 57 -7 78 -8 35 -7 37 17
37 22 0 25 -5 29 -50 12 -123 154 -161 205 -55 20 42 6 85 -28 85 -18 0 -20
-4 -15 -25 3 -14 9 -37 12 -52 8 -30 -15 -53 -53 -53 -43 0 -81 97 -54 139 5
8 24 19 42 25 42 14 69 57 50 80 -7 9 -27 16 -44 16 -24 0 -41 -11 -78 -50
-64 -68 -109 -68 -109 1 0 10 4 19 8 19 5 0 14 12 21 26 13 30 1 54 -28 54
-29 0 -41 -22 -41 -72 0 -38 -6 -54 -28 -78 -19 -22 -32 -29 -45 -25 -23 9
-22 30 4 71 22 37 22 79 -1 79 -14 0 -21 -12 -57 -89 -22 -47 -47 -66 -65 -48
-9 9 -7 23 12 64 13 29 24 69 24 88 1 29 -3 36 -21 38 -28 4 -59 -42 -68 -102
-16 -97 -125 -136 -125 -45 0 11 7 19 16 19 9 0 31 15 50 34 39 39 45 79 15
96 -23 12 -19 12 -57 -4z m51 -36 c11 -18 -4 -45 -36 -64 -17 -10 -32 -16 -34
-14 -3 2 5 23 16 46 20 41 41 53 54 32z m346 -53 c-8 -8 -11 -7 -11 4 0 9 3
19 7 23 4 4 9 2 11 -4 3 -7 -1 -17 -7 -23z m209 -26 c0 -21 -35 -51 -57 -51
-11 0 -10 6 2 29 21 41 55 55 55 22z m-226 -107 c3 -9 6 -36 6 -60 0 -66 -54
-116 -88 -82 -18 18 -15 54 8 98 27 53 62 74 74 44z"/>
<path d="M520 1944 c0 -17 61 -107 67 -100 6 6 -17 89 -29 104 -15 17 -38 15
-38 -4z"/>
<path d="M737 1942 c-17 -19 -37 -65 -37 -87 0 -8 20 -28 44 -44 67 -47 101
-122 101 -226 0 -92 -17 -143 -50 -151 -12 -3 -38 -21 -56 -40 -18 -19 -36
-34 -41 -34 -4 0 -12 18 -18 39 -10 40 -38 60 -61 45 -18 -11 -5 85 14 103 12
12 19 13 38 3 19 -11 24 -10 36 6 31 43 -1 104 -56 104 -36 0 -79 -34 -97 -76
-15 -36 -17 -117 -4 -149 6 -15 2 -27 -15 -45 -13 -14 -35 -47 -49 -74 -39
-74 -32 -136 16 -136 23 0 35 25 53 111 9 40 17 74 19 76 2 2 22 -9 45 -24 26
-17 40 -32 37 -42 -29 -104 -40 -135 -71 -186 -40 -65 -39 -74 8 -109 25 -19
28 -19 44 -3 13 12 19 44 24 129 11 166 14 177 63 198 23 9 53 29 67 44 23 23
28 24 39 11 18 -22 7 -113 -24 -208 -30 -89 -32 -110 -12 -126 37 -31 75 71
91 236 6 59 12 77 32 98 31 30 69 33 78 5 3 -10 -8 -65 -24 -121 -39 -129 -41
-211 -8 -260 29 -44 64 -49 105 -14 37 31 59 89 42 110 -16 19 -37 9 -49 -26
-13 -37 -36 -46 -61 -24 -29 26 -26 87 10 198 34 106 38 158 13 182 -21 22
-65 14 -108 -20 l-32 -24 -22 23 c-18 19 -20 28 -12 49 21 53 23 150 7 242
-26 154 -64 255 -95 255 -4 0 -15 -8 -24 -18z m-79 -545 c5 -24 -15 -21 -28 4
-10 18 -9 20 7 17 10 -2 19 -11 21 -21z m113 -18 c-22 -18 -51 -26 -51 -14 0
9 64 45 70 39 3 -3 -6 -14 -19 -25z"/>
<path d="M1076 1928 c-9 -12 -16 -30 -16 -38 0 -9 -11 -27 -24 -39 -21 -19
-24 -20 -30 -6 -3 9 -6 25 -6 34 0 10 -8 25 -18 34 -58 53 -147 -28 -95 -85
13 -14 14 -21 5 -30 -7 -7 -12 -29 -12 -50 0 -31 5 -41 24 -49 17 -8 29 -8 43
0 21 11 53 68 53 93 0 8 13 24 29 35 l28 22 12 -40 c20 -68 75 -79 126 -25 18
19 35 49 39 68 9 44 19 26 41 -75 32 -145 3 -242 -85 -287 -70 -36 -196 -21
-214 25 -10 27 -6 68 9 95 22 38 19 60 -8 60 -34 0 -57 -30 -57 -76 0 -71 58
-134 137 -149 83 -15 200 52 244 141 20 42 21 56 16 168 -5 119 -17 173 -40
188 -18 11 -45 -20 -52 -61 -14 -81 -78 -143 -112 -108 -15 15 -15 21 1 75 14
47 16 64 7 81 -15 27 -26 27 -45 -1z m-96 -44 c13 -32 13 -64 1 -64 -5 0 -13
9 -16 21 -4 12 -12 18 -21 15 -10 -4 -14 2 -14 18 0 43 35 51 50 10z m-1 -116
c-10 -38 -23 -53 -38 -44 -25 16 -2 76 29 76 16 0 17 -4 9 -32z"/>
<path d="M2156 1893 c-9 -9 93 -45 105 -37 14 9 10 31 -7 38 -22 8 -89 8 -98
-1z"/>
<path d="M324 1856 c-15 -12 -17 -18 -8 -33 10 -15 26 -18 114 -19 90 0 100 1
84 14 -62 47 -152 65 -190 38z"/>
<path d="M489 1707 c-35 -29 -62 -73 -54 -87 13 -20 25 -9 55 50 17 33 29 60
28 60 -2 -1 -15 -11 -29 -23z"/>
<path d="M1090 1696 c0 -9 5 -16 10 -16 6 0 10 4 10 9 0 6 -4 13 -10 16 -5 3
-10 -1 -10 -9z"/>
<path d="M1223 1683 c-15 -6 -18 -89 -3 -98 5 -3 18 -1 27 4 16 9 16 10 -4 11
-24 0 -32 25 -10 33 10 4 10 6 0 6 -19 1 -16 28 5 40 17 11 7 13 -15 4z"/>
<path d="M1370 1630 c0 -53 2 -60 20 -60 31 0 62 37 54 63 -9 32 -34 57 -56
57 -15 0 -18 -8 -18 -60z m54 8 c7 -12 6 -21 -3 -32 -21 -25 -31 -19 -31 20 0
37 14 42 34 12z"/>
<path d="M1473 1682 c-13 -8 -21 -97 -10 -108 4 -4 17 -2 29 4 l23 11 -22 7
c-28 8 -28 13 -5 30 10 8 12 13 5 14 -18 0 -16 30 2 30 8 0 15 5 15 10 0 12
-20 13 -37 2z"/>
<path d="M1523 1673 c-4 -11 3 -23 20 -37 15 -12 27 -27 27 -34 0 -16 -27 -16
-33 1 -2 6 -8 9 -12 5 -13 -12 17 -39 39 -36 34 5 33 46 -1 74 -22 18 -24 23
-10 24 24 0 21 20 -3 20 -11 0 -23 -7 -27 -17z"/>
<path d="M1164 1665 c-10 -8 -14 -15 -8 -15 6 0 17 7 24 15 16 19 9 19 -16 0z"/>
<path d="M1097 1643 c-4 -3 -7 -24 -7 -45 0 -42 22 -61 43 -38 9 10 7 11 -10
5 -19 -5 -23 -2 -23 13 0 11 6 23 13 25 10 4 10 6 0 6 -7 1 -13 7 -13 15 0 8
6 17 13 19 6 3 7 6 1 6 -6 1 -14 -2 -17 -6z"/>
<path d="M1030 1629 c0 -5 5 -7 10 -4 6 3 10 8 10 11 0 2 -4 4 -10 4 -5 0 -10
-5 -10 -11z"/>
<path d="M1172 1605 c0 -16 2 -22 5 -12 2 9 2 23 0 30 -3 6 -5 -1 -5 -18z"/>
<path d="M2116 1583 c-14 -15 -30 -40 -35 -56 -9 -25 -8 -27 8 -22 10 3 38 11
62 18 43 13 69 47 35 47 -9 0 -16 8 -16 20 0 28 -25 25 -54 -7z"/>
<path d="M1031 1567 c1 -21 3 -25 6 -12 3 11 10 23 15 26 5 3 3 9 -6 12 -13 5
-16 0 -15 -26z"/>
<path d="M1614 1546 c-49 -22 -74 -55 -74 -98 0 -50 40 -95 127 -141 128 -67
186 -155 187 -283 1 -91 -31 -158 -90 -191 -48 -28 -37 -30 15 -3 48 24 95 79
110 129 41 140 -32 284 -194 382 -44 26 -90 60 -102 74 -46 53 -18 118 56 131
52 8 60 12 26 13 -16 0 -44 -6 -61 -13z"/>
<path d="M1722 1530 c10 -16 8 -26 -11 -60 -19 -35 -20 -41 -7 -46 9 -3 27 1
41 10 31 20 34 67 5 96 -26 26 -44 26 -28 0z"/>
<path d="M1293 1515 c-43 -30 -53 -116 -17 -156 12 -13 6 -23 -50 -78 -68 -67
-99 -77 -104 -31 -2 19 5 29 28 42 58 33 66 98 12 98 -70 0 -122 -130 -72
-180 38 -38 87 -17 156 67 25 32 50 58 55 57 5 -1 14 -2 19 -2 6 -1 -3 -26
-20 -55 -66 -117 -7 -201 76 -110 19 20 34 41 34 45 0 4 9 -1 20 -12 32 -32
65 -25 120 26 28 26 50 51 50 57 0 5 -22 -11 -49 -37 -32 -29 -55 -44 -66 -40
-17 7 -33 56 -19 61 80 27 112 123 42 123 -32 0 -85 -61 -93 -106 -9 -47 -48
-119 -70 -128 -37 -14 -30 65 10 126 31 46 31 64 3 79 -13 6 -24 13 -26 14 -2
2 6 18 17 36 25 41 27 82 5 103 -19 20 -34 20 -61 1z m63 -40 c6 -16 -32 -85
-47 -85 -19 0 -22 32 -6 66 17 35 43 45 53 19z m-176 -135 c0 -19 -46 -58 -56
-47 -3 3 2 19 11 36 17 35 45 41 45 11z m347 3 c4 -10 -3 -24 -21 -40 -40 -34
-49 -28 -26 17 22 43 37 50 47 23z"/>
<path d="M1875 1380 c-17 -9 -15 -9 9 -5 37 8 92 -11 110 -37 9 -13 12 -33 9
-54 -5 -30 -3 -34 16 -34 32 0 46 44 25 79 -9 15 -25 33 -36 40 -26 16 -108
23 -133 11z"/>
<path d="M1795 1345 c-52 -32 -40 -32 16 0 24 14 40 25 34 25 -5 0 -28 -11
-50 -25z"/>
<path d="M1674 1235 c-58 -76 -71 -174 -30 -222 24 -27 25 -28 43 -9 10 10 12
15 5 11 -8 -4 -22 1 -33 11 -33 29 -26 105 16 181 40 70 40 81 -1 28z"/>
<path d="M2150 1260 c-12 -8 -10 -10 11 -10 15 0 38 -9 53 -21 34 -26 61 -22
61 11 0 23 -4 25 -55 28 -30 1 -62 -2 -70 -8z"/>
<path d="M2110 1156 c16 -44 42 -76 72 -92 25 -13 29 -13 35 1 6 18 -39 70
-87 98 l-30 18 10 -25z"/>
<path d="M1514 1141 c-60 -36 -82 -155 -45 -236 34 -74 94 -106 193 -103 l63
1 -60 6 c-71 8 -96 20 -128 64 -50 67 -60 152 -28 223 11 23 27 47 38 53 10 6
14 11 8 11 -5 0 -24 -9 -41 -19z"/>
<path d="M2010 1102 c0 -56 23 -116 43 -109 17 6 13 34 -17 102 l-26 60 0 -53z"/>
<path d="M1260 950 c-36 -57 -52 -141 -30 -155 19 -12 40 23 40 65 0 20 7 58
16 84 9 26 14 49 11 52 -2 3 -19 -18 -37 -46z"/>
<path d="M1170 951 c-30 -29 -35 -51 -14 -58 10 -3 57 77 50 85 -3 2 -19 -10
-36 -27z"/>
<path d="M1350 926 c0 -20 25 -66 36 -66 18 0 18 6 -3 41 -14 24 -33 39 -33
25z"/>
<path d="M603 95 c0 -27 2 -38 4 -22 2 15 8 27 13 27 5 0 11 -12 13 -27 4 -26
4 -26 6 5 1 22 -4 32 -13 32 -8 0 -17 8 -19 18 -3 9 -5 -5 -4 -33z"/>
<path d="M1102 95 c0 -27 2 -43 5 -35 3 8 13 24 22 35 15 18 15 19 -1 7 -14
-12 -17 -10 -21 15 -2 16 -4 6 -5 -22z"/>
<path d="M720 120 c-4 -25 1 -54 10 -63 4 -5 5 3 3 17 -4 19 -1 26 11 26 9 0
16 -8 16 -19 0 -11 4 -22 9 -25 5 -4 7 3 4 15 -3 12 -1 24 4 28 7 4 6 11 -3
19 -8 7 -14 8 -14 2 0 -14 -27 -13 -33 3 -4 8 -6 8 -7 -3z"/>
<path d="M949 118 c-2 -25 3 -53 11 -62 5 -5 6 1 3 14 -3 12 -1 25 4 29 7 4 6
11 -3 19 -11 10 -14 10 -15 0z"/>
<path d="M1500 125 c-1 -5 -1 -21 0 -34 1 -13 -4 -28 -12 -32 -9 -6 -3 -9 17
-9 17 0 25 4 18 8 -6 4 -13 23 -16 42 -2 19 -5 31 -7 25z"/>
<path d="M1540 110 c-13 -24 2 -60 25 -60 17 0 28 33 20 60 -3 11 -13 20 -20
20 -8 0 -19 -9 -25 -20z m35 -20 c0 -27 -20 -38 -28 -15 -8 20 3 47 17 42 6
-2 11 -14 11 -27z"/>
<path d="M1610 106 c-15 -28 -8 -56 14 -56 8 0 19 7 24 16 8 15 10 15 15 0 9
-22 34 -20 42 4 15 47 -23 81 -45 40 -6 -11 -16 -17 -25 -13 -12 4 -13 9 -4
19 6 8 7 14 2 14 -5 0 -15 -11 -23 -24z m85 -16 c0 -27 -20 -38 -28 -15 -8 20
3 47 17 42 6 -2 11 -14 11 -27z m-63 -15 c0 -5 -5 -11 -11 -13 -6 -2 -11 4
-11 13 0 9 5 15 11 13 6 -2 11 -8 11 -13z"/>
<path d="M1727 123 c-12 -12 -7 -33 7 -33 26 0 28 -20 4 -29 -14 -6 -17 -10
-7 -10 8 -1 20 4 26 10 14 14 6 39 -13 39 -20 0 -17 18 4 23 14 4 14 5 1 6 -9
0 -19 -2 -22 -6z"/>
<path d="M1785 120 c-4 -6 1 -7 11 -3 13 5 16 3 11 -10 -3 -9 -2 -19 4 -22 14
-9 -1 -27 -18 -21 -8 3 -11 1 -8 -4 8 -14 32 -13 37 2 13 39 -18 88 -37 58z"/>
<path d="M1847 123 c-12 -12 -7 -33 7 -33 26 0 28 -20 4 -29 -15 -7 -17 -10
-7 -10 9 -1 22 6 30 15 11 14 13 14 21 0 12 -21 34 -20 43 2 6 16 7 16 16 -1
13 -23 36 -22 44 3 15 46 -22 81 -44 43 -9 -17 -10 -17 -16 0 -10 25 -32 21
-49 -10 -8 -16 -15 -22 -16 -15 0 6 -7 12 -15 12 -21 0 -19 18 3 23 14 4 14 5
1 6 -9 0 -19 -2 -22 -6z m88 -33 c0 -27 -20 -38 -28 -15 -8 20 3 47 17 42 6
-2 11 -14 11 -27z m60 0 c0 -13 -5 -25 -11 -27 -14 -5 -25 22 -17 42 8 23 28
12 28 -15z"/>
<path d="M2030 106 c-15 -29 -8 -56 15 -56 22 0 31 31 13 44 -8 6 -13 17 -11
24 8 21 -3 13 -17 -12z m28 -34 c2 -7 -3 -12 -12 -12 -9 0 -16 7 -16 16 0 17
22 14 28 -4z"/>
<path d="M550 93 c0 -10 4 -14 8 -8 4 6 11 13 16 18 5 4 2 7 -7 7 -10 0 -17
-8 -17 -17z"/>
<path d="M661 83 c-1 -27 3 -33 19 -33 16 0 20 6 19 33 -2 30 -2 30 -6 5 -6
-36 -20 -36 -26 0 -4 25 -4 25 -6 -5z"/>
<path d="M807 104 c-13 -13 -7 -24 14 -24 11 0 19 5 17 12 -5 14 -22 21 -31
12z"/>
<path d="M861 78 c2 -28 2 -29 6 -8 3 14 10 28 17 32 7 5 5 8 -6 8 -14 0 -18
-8 -17 -32z"/>
<path d="M900 93 c0 -10 4 -14 8 -8 4 6 11 13 16 18 5 4 2 7 -7 7 -10 0 -17
-8 -17 -17z"/>
<path d="M994 95 c-8 -21 2 -45 20 -45 19 0 29 29 15 46 -15 18 -28 18 -35 -1z
m31 -15 c0 -7 -6 -15 -12 -17 -8 -3 -13 4 -13 17 0 13 5 20 13 18 6 -3 12 -11
12 -18z"/>
<path d="M1054 95 c-8 -20 2 -45 18 -44 10 0 10 2 1 6 -7 2 -13 13 -13 23 0
10 6 21 13 23 9 4 9 6 -1 6 -7 1 -15 -6 -18 -14z"/>
<path d="M1194 95 c-8 -20 2 -45 18 -44 10 0 10 2 1 6 -7 2 -13 13 -13 23 0
10 6 21 13 23 9 4 9 6 -1 6 -7 1 -15 -6 -18 -14z"/>
<path d="M1244 95 c-8 -21 2 -45 20 -45 7 0 16 7 20 15 8 21 -3 45 -20 45 -8
0 -17 -7 -20 -15z m31 -15 c0 -7 -6 -15 -12 -17 -8 -3 -13 4 -13 17 0 13 5 20
13 18 6 -3 12 -11 12 -18z"/>
<path d="M1301 77 c2 -31 2 -31 6 -4 2 15 8 27 13 27 5 0 11 -12 13 -27 l4
-28 2 28 c0 15 5 27 10 27 5 0 12 -12 14 -27 4 -27 4 -27 6 4 1 29 -1 31 -34
31 -33 0 -35 -2 -34 -31z"/>
<path d="M562 65 c-11 -12 -10 -15 3 -15 8 0 15 7 15 15 0 18 -2 18 -18 0z"/>
<path d="M912 65 c-11 -12 -10 -15 3 -15 8 0 15 7 15 15 0 18 -2 18 -18 0z"/>
<path d="M1120 71 c0 -5 5 -13 10 -16 6 -3 10 -2 10 4 0 5 -4 13 -10 16 -5 3
-10 2 -10 -4z"/>
<path d="M808 58 c5 -5 16 -8 23 -6 8 3 3 7 -10 11 -17 4 -21 3 -13 -5z"/>
</g>
</svg>
